<mxfile host="app.diagrams.net" modified="2022-11-30T15:17:47.119Z" agent="5.0 (Macintosh; Intel Mac OS X 10_15_7) AppleWebKit/537.36 (KHTML, like Gecko) Chrome/107.0.0.0 Safari/537.36" etag="UjW4RE1wkD2Ltkhm_LEE" version="20.6.0" type="github">
  <diagram id="mSCJkkQrYgX1uUQAmYo5" name="第 1 页">
    <mxGraphModel dx="1096" dy="683" grid="1" gridSize="10" guides="1" tooltips="1" connect="1" arrows="1" fold="1" page="1" pageScale="1" pageWidth="827" pageHeight="1169" math="0" shadow="0">
      <root>
        <mxCell id="0" />
        <mxCell id="1" parent="0" />
        <mxCell id="_HnwXd1EgrjlI_xJHXHv-1" value="变长字段长度列表" style="rounded=0;whiteSpace=wrap;html=1;dashed=1;fontSize=16;strokeWidth=2;fillColor=#0050ef;fontColor=#ffffff;strokeColor=#001DBC;" parent="1" vertex="1">
          <mxGeometry x="40" y="120" width="133.36" height="70" as="geometry" />
        </mxCell>
        <mxCell id="_HnwXd1EgrjlI_xJHXHv-2" value="NULL 值列表" style="rounded=0;whiteSpace=wrap;html=1;dashed=1;fontSize=16;strokeWidth=2;fillColor=#6a00ff;fontColor=#ffffff;strokeColor=#3700CC;" parent="1" vertex="1">
          <mxGeometry x="173.3644859813084" y="120" width="123.3644859813084" height="70" as="geometry" />
        </mxCell>
        <mxCell id="_HnwXd1EgrjlI_xJHXHv-3" value="记录头信息" style="rounded=0;whiteSpace=wrap;html=1;fontSize=16;fillColor=#fa6800;fontColor=#000000;strokeColor=#C73500;" parent="1" vertex="1">
          <mxGeometry x="296.7289719626168" y="120" width="123.3644859813084" height="70" as="geometry" />
        </mxCell>
        <mxCell id="_HnwXd1EgrjlI_xJHXHv-5" value="row_id&amp;nbsp;" style="rounded=0;whiteSpace=wrap;html=1;dashed=1;fontSize=16;fillColor=#f5f5f5;fontColor=#333333;strokeColor=#666666;strokeWidth=2;" parent="1" vertex="1">
          <mxGeometry x="420.0934579439252" y="120" width="123.3644859813084" height="70" as="geometry" />
        </mxCell>
        <mxCell id="_HnwXd1EgrjlI_xJHXHv-6" value="trx_id" style="rounded=0;whiteSpace=wrap;html=1;fontSize=16;fillColor=#f5f5f5;fontColor=#333333;strokeColor=#666666;" parent="1" vertex="1">
          <mxGeometry x="543.4579439252336" y="120" width="123.3644859813084" height="70" as="geometry" />
        </mxCell>
        <mxCell id="_HnwXd1EgrjlI_xJHXHv-7" value="roll_ptr" style="rounded=0;whiteSpace=wrap;html=1;fontSize=16;fillColor=#f5f5f5;fontColor=#333333;strokeColor=#666666;" parent="1" vertex="1">
          <mxGeometry x="666.822429906542" y="120" width="123.3644859813084" height="70" as="geometry" />
        </mxCell>
        <mxCell id="_HnwXd1EgrjlI_xJHXHv-8" value="列1值" style="rounded=0;whiteSpace=wrap;html=1;fontSize=16;fillColor=#60a917;fontColor=#ffffff;strokeColor=#2D7600;" parent="1" vertex="1">
          <mxGeometry x="790.1869158878504" y="120" width="123.3644859813084" height="70" as="geometry" />
        </mxCell>
        <mxCell id="_HnwXd1EgrjlI_xJHXHv-9" value="列2值" style="rounded=0;whiteSpace=wrap;html=1;fontSize=16;fillColor=#60a917;fontColor=#ffffff;strokeColor=#2D7600;" parent="1" vertex="1">
          <mxGeometry x="903.2710280373831" y="120" width="123.3644859813084" height="70" as="geometry" />
        </mxCell>
        <mxCell id="_HnwXd1EgrjlI_xJHXHv-10" value="列n值" style="rounded=0;whiteSpace=wrap;html=1;fontSize=16;fillColor=#60a917;fontColor=#ffffff;strokeColor=#2D7600;" parent="1" vertex="1">
          <mxGeometry x="1026.6355140186915" y="120" width="123.3644859813084" height="70" as="geometry" />
        </mxCell>
        <mxCell id="_HnwXd1EgrjlI_xJHXHv-12" value="" style="endArrow=none;html=1;rounded=0;fontSize=16;entryX=0;entryY=1;entryDx=0;entryDy=0;" parent="1" target="_HnwXd1EgrjlI_xJHXHv-1" edge="1">
          <mxGeometry width="50" height="50" relative="1" as="geometry">
            <mxPoint x="40" y="240" as="sourcePoint" />
            <mxPoint x="90" y="220" as="targetPoint" />
          </mxGeometry>
        </mxCell>
        <mxCell id="_HnwXd1EgrjlI_xJHXHv-13" value="" style="endArrow=none;html=1;rounded=0;fontSize=16;entryX=1;entryY=1;entryDx=0;entryDy=0;" parent="1" target="_HnwXd1EgrjlI_xJHXHv-3" edge="1">
          <mxGeometry width="50" height="50" relative="1" as="geometry">
            <mxPoint x="420" y="240" as="sourcePoint" />
            <mxPoint x="500" y="230" as="targetPoint" />
          </mxGeometry>
        </mxCell>
        <mxCell id="_HnwXd1EgrjlI_xJHXHv-14" value="记录的额外信息" style="text;html=1;align=center;verticalAlign=middle;resizable=0;points=[];autosize=1;strokeColor=none;fillColor=none;fontSize=16;" parent="1" vertex="1">
          <mxGeometry x="140" y="205" width="140" height="30" as="geometry" />
        </mxCell>
        <mxCell id="_HnwXd1EgrjlI_xJHXHv-18" value="" style="endArrow=none;html=1;rounded=0;fontSize=16;entryX=1;entryY=1;entryDx=0;entryDy=0;" parent="1" edge="1">
          <mxGeometry width="50" height="50" relative="1" as="geometry">
            <mxPoint x="1150" y="245" as="sourcePoint" />
            <mxPoint x="1150.0934579439254" y="195" as="targetPoint" />
          </mxGeometry>
        </mxCell>
        <mxCell id="_HnwXd1EgrjlI_xJHXHv-19" value="记录的真实数据" style="text;html=1;align=center;verticalAlign=middle;resizable=0;points=[];autosize=1;strokeColor=none;fillColor=none;fontSize=16;" parent="1" vertex="1">
          <mxGeometry x="700" y="205" width="140" height="30" as="geometry" />
        </mxCell>
        <mxCell id="_HnwXd1EgrjlI_xJHXHv-20" value="" style="endArrow=classic;html=1;rounded=0;fontSize=16;exitX=1.011;exitY=0.6;exitDx=0;exitDy=0;exitPerimeter=0;" parent="1" source="_HnwXd1EgrjlI_xJHXHv-14" edge="1">
          <mxGeometry width="50" height="50" relative="1" as="geometry">
            <mxPoint x="330" y="340" as="sourcePoint" />
            <mxPoint x="420" y="223" as="targetPoint" />
          </mxGeometry>
        </mxCell>
        <mxCell id="_HnwXd1EgrjlI_xJHXHv-22" value="" style="endArrow=classic;html=1;rounded=0;fontSize=16;" parent="1" source="_HnwXd1EgrjlI_xJHXHv-14" edge="1">
          <mxGeometry width="50" height="50" relative="1" as="geometry">
            <mxPoint x="140" y="350" as="sourcePoint" />
            <mxPoint x="40" y="220" as="targetPoint" />
          </mxGeometry>
        </mxCell>
        <mxCell id="_HnwXd1EgrjlI_xJHXHv-23" value="" style="endArrow=classic;html=1;rounded=0;fontSize=16;" parent="1" source="_HnwXd1EgrjlI_xJHXHv-19" edge="1">
          <mxGeometry width="50" height="50" relative="1" as="geometry">
            <mxPoint x="650" y="340" as="sourcePoint" />
            <mxPoint x="420" y="220" as="targetPoint" />
          </mxGeometry>
        </mxCell>
        <mxCell id="_HnwXd1EgrjlI_xJHXHv-24" value="" style="endArrow=classic;html=1;rounded=0;fontSize=16;" parent="1" source="_HnwXd1EgrjlI_xJHXHv-19" edge="1">
          <mxGeometry width="50" height="50" relative="1" as="geometry">
            <mxPoint x="1050" y="270" as="sourcePoint" />
            <mxPoint x="1150" y="220" as="targetPoint" />
          </mxGeometry>
        </mxCell>
      </root>
    </mxGraphModel>
  </diagram>
</mxfile>
